<?xml version="1.0" encoding="utf-8"?>
<!-- Generator: Adobe Illustrator 27.4.1, SVG Export Plug-In . SVG Version: 6.00 Build 0)  -->
<svg version="1.1" id="Layer_1" xmlns:bx="https://boxy-svg.com"
	 xmlns="http://www.w3.org/2000/svg" xmlns:xlink="http://www.w3.org/1999/xlink" x="0px" y="0px" viewBox="0 0 293 299.2"
	 style="enable-background:new 0 0 293 299.2;" xml:space="preserve">
<style type="text/css">
	.st0{fill:#FFFFFF;}
</style>
<path class="st0" d="M292.5,122.2c-2.2,4.9-5.7,6.3-10.7,4.6c-0.5-0.2-1-0.6-1.6,0c-1.5,1.6-3.6,2.6-4.9,4.5c-0.8,1.2-2,1.9-3.1,2.8
	c-4.3,3.4-6.5,6.4-10.8,9.9c-0.7,0.6-2.5,2-2.2,2.9c1.3,4-0.9,7.7-4.1,8.7c-2.5,0.8-5.8,0.1-7.7-2.3c-0.8-0.9-1.5-1.2-2.6-1.1
	c-8,0.7-15.9,2-23.8,3.2c-3.5,0.5-6.9,1.4-10.5,1.4c-1,0-1.5,0.4-1.9,1.3c-2.3,5.9-8.7,6.1-12.8,3.4c-0.5-0.4-1-0.5-1.5-0.1
	c-1.9,1.4-4.2,2.3-5.9,4.1c-0.7,0.7-1.5,1.3-2.4,1.8c-5.5,3.1-10.3,7.4-15.5,10.9c-5.6,3.7-11.1,7.6-16.4,11.6
	c-3,2.3-6.4,3.9-9.1,6.5c-0.6,0.6-0.6,1-0.3,1.6c0.8,1.8,0.5,3.5-0.4,5.1c-2.7,5.1-6,6.6-11.5,4.3c-0.7-0.3-1.1-0.3-1.6,0.3
	c-3.1,3.4-6,7-9.3,10.2c-3,2.9-4.5,5.4-7.6,8.8c-1.3,1.5-8.2,9.2-9.8,11.5c-0.6,1-4.1-31.9-4.8-40.2c-0.2-2.7-0.8-4.9-4.2-5.5
	c-2.7-0.5-4.6-2.6-5.2-5.5c-0.2-1.1-0.8-1.9-1.8-2.2c-4.1-1.5-8.3-3-12.4-4.5c-3.2-1.1-5.6,0.1-8.4,1.5c-5.8,3-11.8,5.5-17.7,8.4
	c-1.8,0.9-3.4,1.7-3.9,4c-0.2,0.8-0.8,1.6-1.4,2.2c-2.2,2.1-4.7,3.3-7.7,2.3c-2.4-0.8-4.7-1.9-5.3-4.9c-0.3-1.7-0.2-3.4,0.4-5
	c0.5-1.5-0.4-2.5-0.7-3.3c-0.1-0.3-5.1-7.8-7-11.4c-0.6-1.2-1.4-1.6-2.9-1.3c-4.8,0.8-7.7-1.1-9.4-5.6c-1-2.7,0.8-7.3,2.9-8.6
	c0.7-0.4,1.5-0.6,1.4-1.8c-1-6-2.3-11.9-3.7-17.8c-1.4-5.9-3-11.7-4.1-17.7c-0.2-0.9-0.4-1.5-1.4-1.7c-3.5-0.7-5.7-2.8-6.9-6.1
	c-0.5-1.6-0.2-2,0.1-3.4c1-2.9,3.1-4.4,5.5-5.5c0.7-0.3,1.4-0.5,1.7-1.4c1.3-3.8,2.7-7.5,4-11.3c1-3,2.1-5.9,3.1-8.9
	c1.5-4.6,3.8-9,5.3-13.6c1.8-5.4,4-10.6,6.2-15.9c0.6-1.5,1.2-2.9,1.5-4.5c0.1-0.8,0.1-1.7,0-2.5c-0.2-0.8-0.6-1.5-0.6-2.3
	c-0.3-3,1.5-6.7,4.5-7.8c1.9-0.7,4.1-0.5,6-0.2c3.7,0.6,7.2,0.2,10.6-1.1c8.9-3.6,18.2-5.8,27.1-9.2c3.1-1.2,6.4-1.6,9.4-3
	c1.1-0.5,1.9-1,2.2-2.5c0.6-3.3,3-5.3,6.1-6.2c2.3-0.7,4.7-0.3,6.3,1.8c0.9,1.1,1.9,1.2,3.2,0.7c2.1-0.7,4.2-1.4,6.4-1.9
	c1.2-0.3,1.6-0.7,2-1.9c0.8-3.1,3-4.8,6.2-5c2.9-0.2,5.4,0.6,6.7,3.5c0.5,1.2,1.4,1,2.4,0.8c6.9-1.7,13.8-3.4,20.7-5
	c1.2-0.3,2-0.8,2.4-2c0.6-1.8,1.8-3.2,3.6-4c0.7-0.3,4.2-1.7,7-0.7c2.6,1,4.7,2.6,5,5.6c0.1,0.7,0.5,1.1,1.2,1.2
	c9.1,2.2,18.2,4.8,27.4,6.7c0.9,0.2,1.7,0.2,2.5-0.4c2.3-1.9,5-1.6,7.6-0.8c1.2,0.4,2.6,1.2,2.7,2.9c0.1,1,0.8,1.1,1.6,1.2
	c6.8,1.1,13.6,2.2,20.4,3.3c1.8,0.3,3.6,0.9,5.3-0.4c2.3-1.7,4.9-1.8,7.5-0.6c3.6,1.7,4.7,4.8,4.5,8.5c0,1.1-0.1,1.6,0.9,2.2
	c1.1,0.6,2.1,1.3,3.1,2.1c3.3,2.5,6.7,4.8,10.1,7.1c2.9,2,5.6,4.1,8.3,6.2c2.4,1.9,4.8,3.7,8,2.2c1.2-0.6,2.5-0.3,3.8-0.2
	c6.4,0.6,8.1,8,5.2,12c-1.4,1.9-2,3.5-1.7,5.8c0.7,4.6,1.1,9.3,1.6,13.9c0.3,2.7,1.7,24.2,2.5,31.5c0.1,0.8,0.2,1.4,1,1.8
	c1.9,0.9,3.2,2.5,4.2,4.2C293.2,118.5,293.2,120.1,292.5,122.2z M9.9,115c1.2-0.5,2.3-1.4,2.7-2.6c0.2-0.7,0.3-1.6-0.1-2.3
	c-0.3-0.7-1.1-1.1-1.7-1.4c-1.8-0.6-3.8,0-5,1.4c-0.5,0.6-1,1.3-1,2.2c0,1.3,1,2.4,2.1,2.9C7.9,115.6,8.9,115.4,9.9,115z
	 M81.2,177.9c1.9,0.6,3.9,1.2,5.8,1.6c2.1,0.5,4.4,2.5,5.9,0.2c1.9-2.9,6.2-4.7,9.2-2.4c1.2-2,5.1-8.1,6.1-9.2c2.8-3,2.8-3,0.9-6.5
	c-0.3-0.6-0.6-0.8-1.3-0.7c-7.6,0.9-15.1,2.2-22.6,3.3c-4.2,0.7-20.2,2.6-24,3c-1,0.1-1.7,0.5-2.2,1.6c-1.5,3.7-4.9,5.4-8.7,4.4
	c-1.1-0.3-1.7-0.1-2.1,0.9c-1.2,2.8-2.4,5.7-3.7,8.5c-0.5,1.2-1.4,2.9-0.4,4.7c0.7,0.5,1.4,0.3,1.9,0.1c3.8-1.5,19.6-8.4,23.4-11
	c1.5-1.1,3.2-1.6,5.3-0.7C76.2,176.5,80.5,177.6,81.2,177.9z M82,80.1c-1.8,5.6-3.7,11.1-5.1,16.8c-0.4,1.6-0.1,2.4,1.5,2.8
	c2.2,0.5,3.7,1.9,4.4,4.1c0.4,1.3,1.2,1.6,2.4,1.4c2.2-0.4,4.5-0.8,6.7-0.9c5.9-0.3,11.8-1.4,17.7-1.9c6.7-0.5,13.3-1.6,19.9-2.1
	c1.7-0.1,3.2-0.6,4.1-2.4c0.7-1.6,2.1-2.7,3.9-3c1.1-0.2,1.6-0.8,1.8-2c0.4-3,0.2-6,0.6-9.1c0.6-4.4,0.8-8.9,1.1-13.4
	c0.2-2.9,0.5-5.8,0.7-8.7c0.1-1.1-0.3-1.7-1.5-2c-1.1-0.3-2.6-0.6-3.3-1.4c-1.9-2.3-4.1-1.2-6.2-0.7c-0.7,0.1-1.3,0.5-2,0.6
	c-5.5,1.2-11,2.4-16.5,3.5c-6.7,1.3-13.5,2.6-20.3,3.8c-0.8,0.2-1.4,0.3-1.5,1.3c-0.3,3.1-2,5.1-4.8,6.3c-1.1,0.4-1.8,1.1-2.2,2.2
	C83.2,76.7,82.6,78.2,82,80.1z M241,82.5c0.8-2.4,2.1-4.3,4.5-5.5c1.2-0.6,1.4-1.2,1.1-2.5c-1-4.6-2.1-9.1-3.1-13.7
	c-1.8-8.1-3.2-16.2-4.8-24.3c-0.1-0.6-0.2-1.2-1-1.5c-4.3-1.7-5.4-1.6-9.3,1.1c-0.3,0.2-0.6,0.4-0.9,0.7c-4,3-8.2,5.8-12.4,8.6
	c-4,2.7-8,5.6-12.1,8.1c-4.6,2.8-9,5.9-13.5,8.9c-1.1,0.8-2.1,1.5-2.2,3.2c-0.1,1.4-0.7,2.8-1.9,3.8c-0.5,0.4-0.6,0.8-0.3,1.3
	c1.9,4.4,3.8,8.8,5.7,13.2c0.2,0.5,0.5,1.1,1.2,1.1c2.8,0,4.5,1.8,6.2,3.6c0.6,0.6,1.1,0.9,2,0.8c6.3-0.4,12.7-0.6,19-1.2
	s12.4-1.9,18.6-2.7c1.5-0.2,2.4-0.7,2.8-2.1C240.8,83.1,240.9,82.8,241,82.5z M144.3,65.5c-0.1,1.5-0.3,3-0.4,4.5
	c-0.2,2.6-0.3,5.3-0.5,7.9c-0.4,4.8-0.9,9.5-1.4,14.3c-0.1,1.3,0.4,2.1,1.6,2.7c1.2,0.5,2.5,1.1,3.1,2.4c0.6,1.3,1.6,1.5,3,1.3
	c5.3-0.6,10.6-1.9,15.9-2.6c5.2-0.8,10.5-1.5,15.7-2.3c1.1-0.2,1.8-0.5,2-1.8c0.5-2.9,2.6-4.8,4.8-6.9c-1.7-4.4-3.3-9-5.4-13.3
	c-0.4-0.9-1-1.1-1.9-1.4c-4.3-1.1-5.8-5.5-3.1-9c0.4-0.5,0.8-0.9,0.4-1.5c-1.6-2.3-1.9-5.2-3.4-7.6c-1.3-2.2-2.6-4.4-3.3-6.8
	c-1.6-5.4-4.7-10.1-6.7-15.2c-1.7-4.3-4-8.3-5.4-12.7c-0.6-1.8-1.7-1.1-2.9-1.2c-1.2,0-1.8,0.4-1.9,1.5c-0.5,4.1-1.8,8-2.9,12
	c-1.8,6.7-3.4,13.4-5.1,20c-0.2,0.6,0,1,0.3,1.6c1.6,2.6,1.1,5.3-1.3,7.2c-0.5,0.4-0.9,0.9-0.9,1.6
	C144.5,61.7,144.4,63.4,144.3,65.5z M195.2,55.3c3.5-2.5,7.1-4.7,10.6-7c3.6-2.3,7-4.8,10.5-7.3c4.5-3.1,9-6.2,13.5-9.3
	c0.3-0.2,0.6-0.5,0.7-0.9s-0.2-0.7-0.3-1c-0.2-0.3-0.3-0.7-0.4-1.1c-0.1-0.7-0.2-1.3-0.1-2c0.1-1.1,0.4-2.2-1-2.4
	c-6.6-1.1-13.3-2.2-19.8-3.6c-1.2-0.3-2.6-0.3-3.5,0.5c-0.6,0.5-1.1,1.3-1.7,1.8c-0.8,0.6-2,0.6-3,0.5c-1.8-0.1-3.8-0.6-5-1.9
	c-0.2-0.2-0.4-0.4-0.5-0.7c-0.3-0.4-0.5-0.9-0.6-1.4c-0.4-1.5-1.1-1.7-2.3-2c-2.7-0.5-5.4-0.9-8-1.7C178.2,14,172,13,166,11
	c-0.5-0.2-1.1-0.4-1.5,0.3c-0.5,1.2-1.6,1.9-2.6,2.7c-0.7,0.6-1.1,1.3-0.6,2.1c2,3.6,3.4,7.3,5.1,11c2.8,5.9,5.3,12,8,18
	c1.8,4,3.3,8.1,5.5,11.8c0.6,1,1.3,1.8,2.6,1.8c1.2,0,2.3,0.5,3.2,1.5c0.5,0.6,1.1,0.7,1.8,0.2C190.6,58.5,192.4,57.3,195.2,55.3z
	 M55.3,86.3c-1-1.5-2.1-2.9-3.7-4c-1.1-0.8-1.7-0.7-2.8-0.1c-2.2,1.1-4.5,1.2-6.7,0c-2.2-1.3-3.4-3.3-3.3-5.8
	c0.1-2.8,1.5-4.8,4.1-5.8c1.3-0.5,1.6-1.1,1.1-2.4c-1.8-4.8-3.1-9.9-5-14.7c-0.3-0.7-0.6-1.5-1.2-2c-0.9-0.7-1.9-0.2-2.9-0.2
	c-0.5,0-1,0-1.5-0.1s-1-0.3-1.4-0.2c-0.5,0.1-0.8,0.5-1,1c-3.2,6.7-5.5,13.9-8.3,20.8c-1.9,4.8-3.7,9.6-5.4,14.5
	c-1.8,5.1-3.8,10.1-5.2,15.4c-0.9,3.3,3.3,3.1,3.5,5.6c0.1,0.8,1,0.8,1.8,0.7c0.1,0,0.3,0,0.4,0c3.9-0.2,7.7-0.9,11.7-0.9
	c4.7,0,9.4-0.6,14.2-0.9c7.1-0.4,14.2-0.8,21.4-1.2c1.2-0.1,4.5-3.7,4.1-4.9c-0.1-0.2-2.5-3.6-3.6-4.7
	C61.9,93.3,59.2,89.4,55.3,86.3z M187.3,161.8c1.8-1.5,3.7-3.1,5.8-4.9c-1.9-0.4-3.2-0.9-4.6-1c-8.7-0.8-17.1-3-25.8-4.2
	c-0.8-0.1-1.2,0.2-1.8,0.7c-3.3,3.4-6.2,4.2-10.4,0.8c-1.4-1.1-2.7-0.9-4.1-0.5c-7,1.8-14,3.7-21.1,5.5c-0.7,0.2-1.2,0.5-1.1,1.4
	c0,1.8-0.4,3.6-1.7,4.9c-0.8,0.8-0.8,1.6-0.4,2.4c1.1,2.1,1.6,4.6,2.6,6.7c2.7,5.6,5.8,11,8.6,16.4c0.5,0.9,1.2,1.8,2.2,2
	c0.5,0.1,0.9,0.1,1.4,0.1c1.1,0,2.2,0.2,3.3,0.4c1,0.2,1.9,0.4,2.9,0.1c1-0.3,1.9-1,2.8-1.6c0.7-0.5,1.2-1.1,1.9-1.6
	c6.3-4.5,12.5-9.2,19-13.5c4.9-3.2,9.4-6.9,14.4-10.1C183.2,164.6,184.9,163,187.3,161.8z M83.6,116.6c2.8,3.4,5.5,6.9,8.2,10.3
	c0.6,0.8,1.2,1.5,1.8,2.3c0.8,1.1,1.7,2.1,2.6,3.2c2.7,3.4,5,7.1,7.8,10.4c2.5,2.9,4.8,6,7.2,9c0.5,0.6,1,1.4,1.8,1.1
	c1.6-0.7,3.2-0.5,4.8-0.8c0.9-0.2,1.6-0.6,2-1.5c1.1-2.4,2.4-4.6,3.2-7.1c2.8-8.7,7.2-17,10.8-25.4c0.8-1.9,4.2-7,1.9-8.9
	c-1.5-1.3-2.8-2.8-3.5-4.7c-0.6-1.6-1.6-1.7-2.9-1.6c-5.9,0.3-11.7,1.3-17.5,1.8c-9,0.8-17.9,2-26.9,3.1c-0.8,0.1-1.7,0-2.3,1
	c-0.8,1.2-1.7,2.5-1.6,4c0.1,0.7,0.4,1.4,0.9,2C82.6,115.4,83.1,116,83.6,116.6z M77.3,114.1c-1.2,0.4-2.4,0.7-3.7,0.1
	c-0.6-0.3-1.3-0.2-1.7,0.7c-2.7,5.5-5.5,10.9-8.4,16.4c-0.6,1.2-0.7,2.1,0.5,3.1c2.2,1.8,2.2,4.2,1.7,6.8c-0.7,3.5-3.7,4.4-6.4,5.5
	c-0.7,0.3-1.5,0.2-1.8,1.2c-1.3,3.8-2.8,7.5-3.6,11.6c2,0.7,3.7,1.8,4.6,3.7c0.7,1.5,1.9,1.7,3.3,1.6c6.8-0.8,13.5-1.6,20.3-2.6
	c8.7-1.3,17.3-2.7,26-4c1.4-0.2,1.6-1.2,2.2-2.1c0.6-0.9,0-1.6-0.5-2c-2.2-1.8-3.6-4.4-5.4-6.5c-3.7-4.3-6.6-9.1-10.1-13.5
	c-2.6-3.3-5.3-6.4-7.8-9.8c-1.4-1.9-3-3.7-4.5-5.6C80.7,117,79.5,115.1,77.3,114.1z M194.6,100.4c-0.5,0.2-1,0.4-1.5,0.6
	c-1,0.3-1.9,0.4-3,0.1c-0.8-0.2-1.4-0.5-2.3-0.1c-1.5,0.7-2.3,2.4-3,3.7c-2.5,4.6-5.2,9.2-8.1,13.6c-0.8,1.2-1.3,2.6-1.4,4
	c2.1,1.5,2.5,3.2,1.6,6.1c-0.8,2.6,0.5,3,2.5,4.8c1.1,0.9,12.9,11.8,16.1,14.7c0.7,0.6,1.4,1.1,2.4,0.6c2.5-1.3,5-1.1,7.5,0.1
	c0.9,0.4,1.3,0.1,2-0.4c3.2-2.7,5.4-6.3,8.6-9c2.2-1.9,3.6-4.5,6-6.2c1.4-1,2.1-2.3,0.7-4c-1.3-1.5-1.4-3.4-0.7-5.2
	c0.5-1.5-0.1-2.2-1.1-3.2c-5.2-4.7-10.5-9.3-15.7-14c-1.3-1.2-2.7-2.3-4-3.5c-1.1-1-2.1-2.5-3.7-2.8
	C196.4,99.8,195.5,100,194.6,100.4z M89.3,27.3c-0.8-0.7-1.1-1.9-2.7-1.4c-3.7,1.3-7.3,2.8-11.1,3.6c-3.3,0.7-6.4,2.4-9.6,3.3
	c-5.3,1.6-10.5,3.5-15.7,5.3c-2.1,0.7-4.1,1.5-6.2,2.3c-0.9,0.3-1.2,0.9-1,1.9c0.3,1.5,0.2,3-0.5,4.4c-0.3,0.7-0.8,1.3-1,2
	s-0.2,1.4,0,2.1c0.1,0.5,0.3,1.1,0.4,1.6c1.5,5.7,4.1,11,5.6,16.7c0.1,0.5,0.2,1,0.7,1.2c2.5,1.1,4.6,2.2,7.8,1.2
	c0.7-0.2,12.9-2.9,18-4.5c1-0.3,1.7-0.7,1.9-2c0.8-3.4,3.4-5.8,7-6c1.4-0.1,1.7-0.7,1.9-1.7c1-3.9,1.5-7.9,2.4-11.9
	c1-4.6,2.2-9.2,3.5-13.7C91.1,29.9,91,28.6,89.3,27.3z M220,91.1c-6,0.5-12,0.6-17.9,0.9c-0.9,0.1-1.9,0.2-2,1.3
	c-0.2,1.1-0.5,2.1-1,3c-0.4,0.6-0.1,1.1,0.4,1.5c1,0.9,1.9,1.8,2.9,2.7c7,6.1,14,12.2,20.9,18.4c0.7,0.6,1.3,0.8,2.2,0.5
	c2-0.5,4-0.6,5.8,0.9c0.9,0.7,1.6,0.6,2.3,0c1.3-1.2,2.8-2.2,4.1-3.4c1.9-1.8,2.9-2.7,2.8-5.1c-0.2-3.2,2-5.5,5.2-6
	c3-0.5,5.6,2.9,6,4.2c0.2,0.8,0.8,2.4,2.1,2.9c3.3,0.4,14.5,0.9,23.8,1.9c-0.1-1.4-0.1-1.7-1-2.4c-3.5-2.7-6.5-6-9.7-9
	c-3.1-2.9-6.5-5.5-9.4-8.7c-1.3-1.4-2.6-3.6-5.3-2.6c-3.6,1.3-7.6,0.3-10.2-2.5c-0.7-0.7-1.4-1.4-2.4-1.2
	C232.9,89.2,226.5,90.5,220,91.1z M49.9,139.3c-0.1-0.9,0.2-1.9-0.2-2.7c-0.3-0.7-1.2-1.1-1.9-1.3c-1.5-0.5-2.9-1.5-4.3-2.3
	c-1.5-0.9-3-1.7-4.6-2.6c-6-3.3-12.1-6.7-18.2-9.8c-1.7-0.9-3.4-1.8-5.1-2.7c-1.2-0.6-1.9,0.1-2.7,0.6c-0.9,0.6-0.6,1.3-0.4,2.2
	c1.4,5.8,2.7,11.6,4.2,17.3c1.5,5.9,2.8,11.8,3.7,17.8c0.1,0.7,0.2,1.2,1.1,1.3c3.6,0.3,5.4,2.8,6.5,5.8c0.4,1,0.9,1.5,2.1,1.5
	c4.4,0,8.7,0,13.1,0c0.7,0,1.4,0,1.8-0.8c0.9-2,2.5-3.3,4.5-4.2c0.4-0.2,0.8-0.4,1-0.9c1.7-3.7,2.9-7.5,4-11.4
	c0.3-0.9,0-1.6-0.9-1.9C50.9,144.3,50.1,142.2,49.9,139.3z M125.6,16.4c-0.9,0.6-1.3,1.5-1.7,2.4c-1.4,2.6-4.7,4.6-6.8,3.9
	c-2-0.7-3.9-1.6-5.1-3.4c-0.5-0.7-1-0.9-1.9-0.7c-2.5,0.4-4.8,1.4-7.2,2.3c-0.7,0.2-2.3,4.5-2,5.1c0.1,0.1,0.2,0.2,0.3,0.3
	c4.3,3,8.4,6.4,12.9,9c2.8,1.6,5.3,3.5,8.1,5.2c4.6,2.7,8.8,5.9,13.5,8.5c0.7,0.4,1.4,0.7,2.1,0.2c1.9-1,3.8-1.5,6-0.7
	c0.3-0.7,0.5-1.2,0.7-1.7c0.9-3.7,1.9-7.3,2.7-11c1.4-6.1,3.1-12.1,4.9-18.1c0.6-1.9,0.9-3.5-1.3-4.6c-0.4-0.2-0.8-0.7-1-1.1
	c-0.6-1.2-1.5-1.2-2.7-0.9C140,12.7,132.9,14.5,125.6,16.4z M99.6,28.8c-0.5-0.2-5.4,0.5-5.7,0.8c-0.1,0.2-0.2,0.5-0.3,0.7
	c-0.9,4.4-2.1,8.7-3.3,13c-1,3.7-1.4,7.5-2.4,11.3c-0.7,2.5-1.5,5.2,1.1,7.3c0.6,0.5,0.9,0.9,1.8,0.7c7.9-1.5,15.8-2.8,23.6-4.5
	c6.5-1.3,12.9-3,19.4-4.5c0.6-0.1,1.3-0.2,1.5-1c0.1-0.6-0.3-0.9-0.7-1.2c-6-4.4-12.6-7.9-18.7-12.2
	C110.6,35.8,105.2,32.5,99.6,28.8z M248.4,143c0.4,0.5,0.7,1,1.4,0.6c2.6-1.2,5.1-1,7.7,0.3c3.5-3.6,5.2-4.6,7.6-7.1
	c3.9-3.9,8.2-7.4,12.2-11.3c0.5-0.5,1.2-0.9,1.1-1.7c-0.4-1.8-1.3-3.5-1.3-5.5c0-0.7-1-0.6-1.6-0.7c-2.8-0.3-5.6-0.6-8.5-0.9
	c-4.5-0.4-9-0.7-13.6-1.1c-1-0.1-1.8,0-2.6,0.7c-2.3,1.9-4.8,2.8-7.6,1.1c-0.9-0.5-1.7-0.4-2.4,0.3c-1.4,1.6-3.1,2.7-4.9,3.8
	c-1.6,1.1-2.8,4.8-1.8,6.3c0.9,1.3,1.8,2.5,3,3.7C240.8,135.3,244.5,139.1,248.4,143z M280.8,83.7c-0.6-5.3-1.1-10.7-1.8-16
	c-0.2-1.4-0.5-2.9-1.2-4.1c-0.9-1.5-3.5-3.2-5-1.5c-5.3,5.6-10.7,11.1-16.1,16.6c-0.6,0.7-1,1.2-0.5,2.2c1.2,2.3,1.2,4.6,0.1,6.9
	c-0.4,0.8-0.4,1.5,0.3,2.2c2.4,2.8,5.2,5.4,8,7.8c3,2.5,5.5,5.5,8.7,7.8c2.4,1.8,4,4.5,6.6,6.2c1.1,0.7,1.9,0.5,3,0.2
	c1.1-0.4,0.7-1.2,0.6-1.9c-0.2-1.9-0.6-3.9-0.7-5.8C282,97.5,281,90.8,280.8,83.7z M68.4,115.8c1-1.8-1.9-7.1-2.7-7
	c-3.9,0.1-7.7,0.2-11.6,0.4c-7.5,0.4-15,0.9-22.5,1.4c-4.7,0.3-9.3,0.7-14,1.1c-1.3,0.1-1.2,1.2-1.5,2.1c-0.3,0.9,0.1,1.2,0.9,1.6
	c2.3,1.1,4.5,2.4,6.7,3.7c2.8,1.6,5.7,2.9,8.5,4.6c3.1,1.7,6.1,3.4,9.2,5.1c2.1,1.2,4.1,2.5,6.3,3.6c1.6,0.9,3.8,2.7,5.5,0.8
	c1.4-1.6,3.1-2,5.1-1.8c1.4,0.1,2.1-0.5,2.8-1.7C63.6,125.1,65.8,120.4,68.4,115.8z M254.4,76.8c2.1-1.5,3.5-3.7,5.2-5.5
	c3.6-3.8,7.1-7.8,11.1-11.3c0.4-0.3,0.9-0.7,0.6-1.3c-1.1-1.9-0.5-4-0.6-6s-3-3.2-4.4-4.2c-4.3-3-8.5-6.1-12.8-9
	c-2.1-1.4-4.3-2.9-6.3-4.4c-0.6-0.4-1.2-0.8-1.7-1.3c-0.5-0.4-1-0.9-1.6-1.2c-0.5-0.2-0.9,0.1-1.3,0.5c-0.3,0.3-0.6,0.5-0.8,0.8
	c-0.5,0.7-0.6,1.4-0.4,2.2c1.7,5.4,2.6,11.1,3.6,16.7c1.4,7.3,2.8,14.6,4.9,21.8C250.4,76.5,252.2,77.5,254.4,76.8z M148.2,147.2
	c0.4-1.3,1.1-2.6,2.1-3.6c0.8-0.8,0.8-1.5,0.4-2.5c-1.2-3.2-2.2-6.4-3.3-9.7c-1.7-4.8-3-9.8-4.6-14.6c-0.6-1.7-1.2-3.3-1.8-5
	c-0.2-0.7-0.8-0.6-1.3-0.2c-0.4,0.3-0.5,0.9-0.7,1.3c-1.4,4.1-3.1,8-4.9,11.9c-4.1,9.2-8,18.6-12.1,27.9c-0.4,0.9,0.2,2,0.8,2.6
	c1,1,2.7,0.2,3.8-0.1c3.3-0.8,6.6-1.9,9.9-2.8c3.2-0.9,6.6-1.2,9.7-2.6C147.5,149.3,147.9,147.9,148.2,147.2z M148.1,103.7
	c-0.2,1.1-0.3,2.3,0.6,3.2c3.1,2.9,6.2,5.8,9.4,8.7c1.6,1.4,3.2,2.9,4.8,4.3c1.3,1.2,2.7,2.8,4.7,2.1c2.7-1.4,2.9-1,5-1.3
	c0.8-0.1,1.5-2.2,1.8-2.8c3-5.9,6.4-11.6,9.8-17.3c0.5-0.8,1.3-1.5,0.4-2.7c-1.7-2.3-4-1.4-6.5-1.1c-9.3,1.4-18.5,3.1-27.8,4.7
	C149.1,101.7,148.7,102.2,148.1,103.7z M103.6,198.3c0.7,4,2.7,26.9,3.2,30.8c1.5-1.7,3.3-3.6,4.6-5c0.9-1,5.1-5.9,7.6-8.8
	c2.8-3.3,5.5-6.7,8.6-9.7c2.7-2.6,1.9-5.3-1.6-6.6c-1-0.4-19.1-7.3-21.3-8.7c-0.7,0.9-2.2,1.2-1.9,2.8
	C103.3,194.8,103.3,196.6,103.6,198.3z M211,153.6c1.1,0.4,14.6-1.7,22-3c1.9-0.3,10.2-1.2,10.9-1.2c0.7,0,1.8,0,1.9-0.8
	c0.2-1.1,1.4-2.2,0.5-3.4c-0.8-1-1.4-2.3-2.4-3.1c-3.7-2.9-6.6-6.7-10.2-9.8c-1.4-1.2-2.4-2.9-4.2-1.7c-0.5,0.4-3.2,1.2-3.6,1.6
	c-1.8,1.9-3.7,3.7-5.5,5.7c-3.5,3.7-7,7.5-10.5,11.2C208.3,150.9,210,153.3,211,153.6z M71.1,98.3c1.1,0.5,2.2,0.7,2.6-0.8
	c1-3.6,1.9-7.2,3.2-10.7c1.2-3.2,2.2-6.5,3.4-9.7c0.4-1.2,0.9-2.3,0.9-3.7c-1.6-0.5-2.6-1.6-3.6-2.7c-0.9-1-1.8-1.4-3.2-1
	c-3.9,1.1-7.9,2.1-11.9,2.9c-3.2,0.7-6.3,1.4-9.2,2.8c-1.3,0.6-1.7,2.7-0.8,3.7c3.5,3.6,7.1,7.2,10.6,10.8
	C65.7,92.7,68.3,95.5,71.1,98.3z M114.2,189.8c2.6,1.1,5.3,2.2,7.9,3.3c1.3,0.6,2.7,1.1,4,1.7c0.7,0.3,1.3,0.5,2,0.8
	c0.6,0.3,1.2,0.8,1.9,0.6c0.3-0.1,0.6-0.3,0.8-0.5c1.3-1.2,1-2.9,0.3-4.3c-1-1.9-1.9-3.9-3-5.9c-3-5.2-5.3-10.7-7.7-16.2
	c-0.6-1.4-1.4-2.3-3.1-2.1c-1.1,0.1-2.2,0-3.2-0.4c-0.7-0.3-1.2-0.2-1.6,0.5c-2.2,3.9-5.2,7.1-7.4,11c-0.5,0.9-0.4,1.5,0.1,2.2
	c0.9,1.3,1.4,2.7,1.2,4.3c-0.1,1,0.4,1.5,1.2,1.9C109.6,187.7,111.8,188.7,114.2,189.8z M163.6,140.4c-0.1,0.1-0.1,0.2-0.2,0.3
	c-2.1,1.9-1.8,4.3-1.2,6.6c0.2,0.6,0.2,1.4,1.1,1.6c4.5,0.9,9,2,13.5,2.7c4.9,0.8,9.8,1.3,14.6,2c0.9,0.1,1.9,0.7,2.4-0.6
	c0.5-1.2,0.7-2.3-0.5-3.4c-1.4-1.4-3.2-2.3-4.6-3.6c-4.3-3.9-8.6-7.9-13-11.9c-2-1.8-5.9-1.6-7.9,0.3
	C166.2,136,165,138.1,163.6,140.4z M143.5,110.9c0,0.4,0.2,0.8,0.4,1.3c0.7,1.5,1.2,3,1.7,4.5c1.1,3.1,2,6.4,3,9.6
	c0.9,2.8,1.7,5.5,2.6,8.3c1,3,1.1,7.5,5.2,7.3c1.5-0.1,2.4,0.1,3.4-1.2c2.5-3.1,4.5-6.5,6.6-9.8c0.3-3.7-1.6-5.4-4.1-7.7
	c-1.9-1.7-4-3.3-6-5c-1.7-1.5-3.4-3-5.2-4.4c-1.7-1.4-3.2-3.1-4.7-4.8c-0.2-0.3-0.6-0.5-0.9-0.5c-0.2,0-0.3,0.1-0.5,0.2
	C144.4,109.1,143.5,110,143.5,110.9z M26.8,168.8c-0.7,1.4,4.5,9.3,6.6,12c2.5,3,2.3,3.2,6.1,2.7c0.7-0.1,1.2-0.4,1.5-1
	c1.8-3.3,3-6.9,4.4-10.4c0.9-2.4-1-4.8-3.4-4.8c-3.9,0-7.7,0-11.6,0C28.9,167.2,27.6,167.3,26.8,168.8z M194,89.8
	c-1-0.8-2.1-0.8-3.2-0.8c-1.9-0.1-3.2,1.4-3.5,3.7c-0.2,1.8,1.1,4.1,2.6,4.4c1.9,0.4,4.1-0.4,5.1-1.8
	C196.1,93.5,195.9,92.1,194,89.8z M140.8,106.6c1.6,0,3.6-0.2,4.4-3.4c0-3.2-1.3-4.4-4.6-4.5c-2.9,0-4.2,1.3-4.2,4.7
	C136.3,105.3,138,106.6,140.8,106.6z M199,157.5c2.3,1.5,4.9,0.8,5.4-1.5c0.3-1.1,0.2-2.3-0.9-3c-1.8-1.1-3.1-1-4.5,0.5
	C197.7,154.7,197.8,156,199,157.5z M16.9,164.8c0.2,1.9,1.1,2.8,2.9,3c1.5,0.1,3-1,3.4-2.4c0.5-1.9-0.7-2.7-2-3.3
	C19.2,161.1,17.7,162,16.9,164.8z M156.5,4.9c-1.7,0.4-2.4,1.5-2.3,3.2c0.1,1.2,0.6,2.2,1.9,2.4c2,0.3,3.3-0.4,3.6-2.1
	C160,6.2,159,5,156.5,4.9z M42.2,190.9c-0.4-2.5-1.4-3.2-3.9-2.7c-1.5,0.3-2.1,1.8-1.5,3.7c0.3,1.2,1.1,1.8,2.3,1.8
	C40.8,193.7,41.8,192.8,42.2,190.9z M157.2,150.6c1.2-0.9,1.2-3.4,0.2-4.4c-0.8-0.8-3.7-0.6-4.2,0c-1.1,1.3-1.2,2.8-0.5,4.2
	C153.4,151.7,156,151.1,157.2,150.6z M235.4,26.4c-0.1,1,0.3,2.2,1,2.7c0.6,0.5,1.5,0.4,2.2,0.4c0.6,0,1.2,0,1.6-0.5
	c1.1-1.2,0.6-4.1-1-4.7c-0.7-0.3-1.5-0.4-2.2-0.1c-0.7,0.3-1.3,1-1.5,1.7C235.4,26,235.4,26.2,235.4,26.4z M97.1,22.2
	c0.2-2-0.4-2.9-2.2-3.2s-2.6,0.2-3.1,2.1c-0.4,1.6,0.3,2.6,1.7,3.1C94.8,24.8,96.3,24.1,97.1,22.2z M118.8,156.7
	c-0.9-0.8-4.1-0.1-4.7,1.4c-0.6,1.5-0.2,2.7,1.2,3.6c1.2,0.7,2.3,0.6,3.3-0.4C119.9,160.3,120.3,158.1,118.8,156.7z M249.6,87.6
	c2-0.8,3.6-2.7,3-4.3c-0.3-0.9-3.2-1.8-4.7-1.1c-0.8,0.4-1.7,1.8-1.6,2.8s0.4,1.9,1.4,2.3C248.2,87.5,248.7,87.5,249.6,87.6z
	 M138.4,202.3c1.6-1.5,2.1-3.4,0.9-4.1c-1.2-0.7-2.6-0.9-3.7,0.1c-1,0.9-1.5,2.1-0.7,3.4C135.7,203,136.8,203,138.4,202.3z
	 M283.5,121.3c1.1,1,2.3,0.6,3.3,0c0.9-0.5,1.1-1.5,0.9-2.5c-0.1-0.8-0.4-1.4-1.1-1.8c-1.2-0.5-2.7-0.8-3.5,0.6
	C282.4,118.6,282.4,119.9,283.5,121.3z M250.7,148.7c0.1,1.6,1.2,2,2.5,2.3c1.4,0.3,2,0,2.5-0.9s1-2,0-2.9
	C254,145.8,251.6,146.4,250.7,148.7z M80.8,65.8c-0.5,1.3,0.2,2.2,1.1,2.9c0.8,0.6,1.8,0.5,2.6-0.1c0.9-0.6,1-1.7,1-2.7
	c-0.1-1.2-1-1.7-2-2C82.2,63.7,81.5,64.6,80.8,65.8z M276.3,56c0.5,1,4.1,1,4.6-1c0.3-1.3-0.3-2.1-1.4-2.6c-1.4-0.7-2.4,0.1-3.4,1
	C275.3,54.3,275.9,55.2,276.3,56z M37.6,42.2C37,41.5,36,41,35.2,40.9c-1.2-0.2-2.5,0.3-3.2,1.5c-0.6,1.1-0.6,2.5,0.3,3.4
	c1,1,2.4,1.2,3.6,0.7c1.2-0.5,2.4-2.1,2-3.7C37.9,42.6,37.8,42.3,37.6,42.2z M228.5,123.1c-1.2-0.5-2.2-0.2-2.9,1
	c-0.6,1-0.7,2,0.1,3c0.9,1,2,0.9,3.1,0.5C230.4,126.9,230.3,124.6,228.5,123.1z M72.1,106.7c0,0.1,0,0.2,0,0.3
	c0,0.7,0.3,1.3,0.8,1.7c0.6,0.5,1.5,0.9,2.3,1c0.6,0.1,1.3,0.1,1.8-0.2c1.2-0.6,1.2-2.2,0.9-3.3c-0.4-1.2-1.4-2-2.6-2.2
	c-1.1-0.1-1.8,0.6-2.4,1.4C72.5,105.7,72.2,106.2,72.1,106.7z M50,166.2c0.2,0.5,0.3,1.1,0.6,1.6c0.5,0.9,1.4,0.9,2.3,0.7
	c1.2-0.4,2-1.1,2.1-2.4c0-0.8-0.3-1.5-1.1-1.8C52.2,163.5,50.8,164.2,50,166.2z M54.6,140.5c0.5,0.7,3.7,0.8,4.8,0.4
	c1.5-0.5,1.8-2.6,1.2-3.7c-0.3-1-4.4-1.5-5.2-0.7C54.8,137.1,53.8,139.3,54.6,140.5z M115.8,13.7c-0.3,0.2-0.7,0.8-0.5,1.8
	c0.3,1.4,1.5,1.7,2.6,1.7c1.1-0.1,1.8-0.9,2-2c0.2-1-0.2-1.7-1.1-2.2C117.6,12.4,116.6,12.9,115.8,13.7z M100.2,182.3
	c-0.9-0.6-3-0.4-4,0.7c-0.9,1-1,3.2,0.1,4.7c1,1.4,3.6,0.8,4.9-0.2C102.3,186.5,101.7,183.3,100.2,182.3z M142.5,55.8
	c0.1-0.4,0.4-0.8,0.4-1.2c0.1-0.9-0.1-1.9-1.2-2.1c-1-0.2-2.1-0.3-2.7,0.8c-0.5,1-0.3,2,0.6,2.7C140.6,56.7,141.5,56.6,142.5,55.8z
	 M172.7,124.2c-1.3-0.5-2.7,0.4-3.1,1.5c-0.5,1.4,0.5,2.6,1.6,3.2c0.8,0.4,2.5,0,2.8-0.7C174.6,127,174.9,125.1,172.7,124.2z
	 M43.9,77.6c1,1,2,1,2.9,0.1c0.6-0.6,0.9-1.4,0.2-2.2c-0.7-0.8-1.6-1.4-2.6-0.8C43.3,75.3,43,76.3,43.9,77.6z M246.8,109.5
	c-1.5,0-2.7,1.2-2.7,2.8s1.2,2.8,2.7,2.8s2.7-1.2,2.7-2.8S248.3,109.5,246.8,109.5z M200,15.5c-1.4,0-2.5,1-2.5,2.2s1.1,2.2,2.5,2.2
	s2.5-1,2.5-2.2S201.4,15.5,200,15.5z M182.5,62.3c-1.6,0-2.6,0.9-2.6,2.1c0,1.2,0.7,2.7,2.4,2.7c1.6,0,2.8-1.6,2.8-2.8
	C185.1,63.1,184.1,62.3,182.5,62.3z"/>
<path class="st0" d="M52.2,295.8V248H38.6v47.8H52.2z M38.6,299.2c-0.9,0-1.7-0.3-2.4-1c-0.7-0.7-1-1.5-1-2.4V248
	c0-0.9,0.3-1.7,1-2.4c0.7-0.7,1.5-1,2.4-1h13.7c0.9,0,1.7,0.3,2.4,1c0.7,0.7,1,1.5,1,2.4v47.8c0,1-0.3,1.8-1,2.4
	c-0.7,0.7-1.5,1-2.4,1H38.6z M83.3,268.5V248H69.7v20.5H83.3z M66.3,299.2v-54.6h17.1c0.9,0,1.7,0.3,2.4,1c0.7,0.7,1,1.5,1,2.4v20.5
	c0,1-0.3,1.8-1,2.4c-0.7,0.7-1.5,1-2.4,1H69.7v27.3H66.3z M106.3,299.2V248h-9.5v-3.4h22.4v3.4h-9.5v51.2H106.3z M132.1,299.2
	c-0.9,0-1.7-0.3-2.4-1c-0.7-0.7-1-1.5-1-2.4v-51.2h3.4v51.2h13.6v-51.2h3.4v51.2c0,1-0.3,1.8-1,2.4c-0.7,0.7-1.5,1-2.4,1H132.1z
	 M163.3,299.2c-0.9,0-1.7-0.3-2.4-1c-0.7-0.7-1-1.5-1-2.4v-10.2h3.4v10.2h13.6V289l-17.1-34.1V248c0-0.9,0.3-1.7,1-2.4
	c0.7-0.7,1.5-1,2.4-1h13.6c0.9,0,1.7,0.3,2.4,1c0.7,0.7,1,1.5,1,2.4v10.2h-3.4V248h-13.6v6.8l17.1,34.1v6.8c0,1-0.3,1.8-1,2.4
	c-0.7,0.7-1.5,1-2.4,1H163.3z M191,271.9v-3.4h13.6v3.4H191z M215.3,299.2l10.8-54.6h3.4l-10.8,54.6H215.3z M240.4,299.2l-10.8-54.6
	h3.4l10.8,54.6H240.4z M254.4,299.2v-54.6h3.4v54.6H254.4z"/>
<path class="st0" d="M224.3,283.4V280h10.5v3.4H224.3z"/>
</svg>
